<svg width="40" height="36" viewBox="0 0 40 36" fill="none" xmlns="http://www.w3.org/2000/svg">
<path d="M14.9219 14.582H38.3594C38.5742 14.582 38.75 14.4062 38.75 14.1914V11.457C38.75 11.2422 38.5742 11.0664 38.3594 11.0664H14.9219C14.707 11.0664 14.5312 11.2422 14.5312 11.457V14.1914C14.5312 14.4062 14.707 14.582 14.9219 14.582ZM14.5312 24.543C14.5312 24.7578 14.707 24.9336 14.9219 24.9336H38.3594C38.5742 24.9336 38.75 24.7578 38.75 24.543V21.8086C38.75 21.5938 38.5742 21.418 38.3594 21.418H14.9219C14.707 21.418 14.5312 21.5938 14.5312 21.8086V24.543ZM39.1406 0.8125H0.859375C0.644531 0.8125 0.46875 0.988281 0.46875 1.20312V3.9375C0.46875 4.15234 0.644531 4.32812 0.859375 4.32812H39.1406C39.3555 4.32812 39.5312 4.15234 39.5312 3.9375V1.20312C39.5312 0.988281 39.3555 0.8125 39.1406 0.8125ZM39.1406 31.6719H0.859375C0.644531 31.6719 0.46875 31.8477 0.46875 32.0625V34.7969C0.46875 35.0117 0.644531 35.1875 0.859375 35.1875H39.1406C39.3555 35.1875 39.5312 35.0117 39.5312 34.7969V32.0625C39.5312 31.8477 39.3555 31.6719 39.1406 31.6719ZM1.95312 24.3525L9.58496 18.3418C9.63635 18.3014 9.67789 18.2499 9.70645 18.1911C9.73502 18.1323 9.74986 18.0678 9.74986 18.0024C9.74986 17.9371 9.73502 17.8726 9.70645 17.8138C9.67789 17.755 9.63635 17.7035 9.58496 17.6631L1.95312 11.6475C1.66992 11.4229 1.25 11.623 1.25 11.9844V24.0107C1.24997 24.0923 1.2729 24.1722 1.31615 24.2414C1.3594 24.3105 1.42123 24.3661 1.49458 24.4017C1.56793 24.4374 1.64983 24.4517 1.73091 24.443C1.812 24.4343 1.88901 24.4029 1.95312 24.3525Z" fill="#4B4444"/>
</svg>
