<svg width="210" height="45" viewBox="0 0 210 45" fill="none" xmlns="http://www.w3.org/2000/svg">
<path d="M22.5 33.75V22.5M26.7187 33.75V31.6406C26.7187 29.0918 29.4908 26.6809 31.2891 24.9609C33.8238 22.5378 35.1562 19.2823 35.1562 15.4687C35.1562 8.43749 29.555 2.81249 22.5 2.81249C20.8366 2.80785 19.1888 3.13204 17.6512 3.76644C16.1135 4.40083 14.7165 5.33291 13.5403 6.50907C12.3642 7.68524 11.4321 9.08229 10.7977 10.6199C10.1633 12.1575 9.8391 13.8054 9.84374 15.4687C9.84374 19.1461 11.2333 22.6222 13.7109 24.9609C15.4995 26.6493 18.2812 29.0654 18.2812 31.6406V33.75H26.7187ZM19.6875 42.1875H25.3125H19.6875ZM18.2812 37.9687H26.7187H18.2812Z" stroke="#4B4444" stroke-width="3.75" stroke-linecap="round" stroke-linejoin="round"/>
<path d="M25.8398 21.0938C25.8398 21.0938 23.9493 22.5 22.5 22.5C21.0507 22.5 19.1602 21.0938 19.1602 21.0938" stroke="#4B4444" stroke-width="3.75" stroke-linecap="round" stroke-linejoin="round"/>
<circle r="7.5" transform="matrix(-1 0 0 1 22.5 16.5)" fill="#4B4444"/>
<path d="M26.9094 12.75L21.9415 17.328L20.3302 15.8433L18.75 17.2995L20.3612 18.7843L21.9518 20.25L23.532 18.7938L28.5 14.2157L26.9094 12.75Z" fill="white"/>
<path d="M57.1719 22H55.1406V19.25H48V22H45.9688V16.3984C45.9688 15.5807 46.1094 14.8281 46.3906 14.1406C46.6719 13.4531 47.0625 12.862 47.5625 12.3672C48.0625 11.8724 48.6536 11.487 49.3359 11.2109C50.0182 10.9349 50.763 10.7969 51.5703 10.7969H56.1484C56.2891 10.7969 56.4219 10.8229 56.5469 10.875C56.6719 10.9271 56.7812 11 56.875 11.0938C56.9688 11.1875 57.0417 11.2969 57.0938 11.4219C57.1458 11.5469 57.1719 11.6797 57.1719 11.8203V22ZM48 17.2188H55.1406V12.8281H51.5703C51.5078 12.8281 51.375 12.8385 51.1719 12.8594C50.974 12.875 50.7422 12.9193 50.4766 12.9922C50.2161 13.0651 49.9401 13.1771 49.6484 13.3281C49.3568 13.4792 49.0885 13.6875 48.8438 13.9531C48.599 14.2188 48.3958 14.5521 48.2344 14.9531C48.0781 15.349 48 15.8307 48 16.3984V17.2188ZM70.7344 14.5625C70.7344 15.026 70.6771 15.4401 70.5625 15.8047C70.4479 16.1693 70.2917 16.4922 70.0938 16.7734C69.901 17.0495 69.6771 17.2865 69.4219 17.4844C69.1667 17.6823 68.8984 17.8464 68.6172 17.9766C68.3411 18.1016 68.0599 18.1927 67.7734 18.25C67.4922 18.3073 67.2266 18.3359 66.9766 18.3359L71.2188 22H68.0781L63.8438 18.3359H62.3828V16.3047H66.9766C67.2318 16.2839 67.4635 16.2318 67.6719 16.1484C67.8854 16.0599 68.0677 15.9427 68.2188 15.7969C68.375 15.651 68.4948 15.4766 68.5781 15.2734C68.6615 15.0651 68.7031 14.8281 68.7031 14.5625V13.2812C68.7031 13.1667 68.6875 13.0807 68.6562 13.0234C68.6302 12.9609 68.5938 12.9167 68.5469 12.8906C68.5052 12.8594 68.4583 12.8411 68.4062 12.8359C68.3594 12.8307 68.3151 12.8281 68.2734 12.8281H61.5703V22H59.5391V11.8203C59.5391 11.6797 59.5651 11.5469 59.6172 11.4219C59.6693 11.2969 59.7396 11.1875 59.8281 11.0938C59.9219 11 60.0312 10.9271 60.1562 10.875C60.2812 10.8229 60.4167 10.7969 60.5625 10.7969H68.2734C68.7266 10.7969 69.1094 10.8802 69.4219 11.0469C69.7344 11.2083 69.987 11.4141 70.1797 11.6641C70.3776 11.9089 70.5182 12.1745 70.6016 12.4609C70.6901 12.7474 70.7344 13.0156 70.7344 13.2656V14.5625ZM85.8125 22H83.7656V15.3281L80.1641 21.6641C80.0755 21.8255 79.9505 21.9479 79.7891 22.0312C79.6328 22.1146 79.4635 22.1562 79.2812 22.1562C79.1042 22.1562 78.9375 22.1146 78.7812 22.0312C78.6302 21.9479 78.5104 21.8255 78.4219 21.6641L74.8047 15.3281V22H72.7734V11.6641C72.7734 11.4297 72.8411 11.2214 72.9766 11.0391C73.1172 10.8568 73.2995 10.7344 73.5234 10.6719C73.6328 10.6458 73.7422 10.638 73.8516 10.6484C73.9609 10.6536 74.0651 10.6771 74.1641 10.7188C74.2682 10.7552 74.362 10.8099 74.4453 10.8828C74.5286 10.9505 74.599 11.0339 74.6562 11.1328L79.2812 19.1719L83.9062 11.1328C84.026 10.9349 84.1901 10.7943 84.3984 10.7109C84.612 10.6276 84.8333 10.6146 85.0625 10.6719C85.2812 10.7344 85.4609 10.8568 85.6016 11.0391C85.7422 11.2214 85.8125 11.4297 85.8125 11.6641V22ZM99.1719 22H97.1406V19.25H90V22H87.9688V16.3984C87.9688 15.5807 88.1094 14.8281 88.3906 14.1406C88.6719 13.4531 89.0625 12.862 89.5625 12.3672C90.0625 11.8724 90.6536 11.487 91.3359 11.2109C92.0182 10.9349 92.763 10.7969 93.5703 10.7969H98.1484C98.2891 10.7969 98.4219 10.8229 98.5469 10.875C98.6719 10.9271 98.7812 11 98.875 11.0938C98.9688 11.1875 99.0417 11.2969 99.0938 11.4219C99.1458 11.5469 99.1719 11.6797 99.1719 11.8203V22ZM90 17.2188H97.1406V12.8281H93.5703C93.5078 12.8281 93.375 12.8385 93.1719 12.8594C92.974 12.875 92.7422 12.9193 92.4766 12.9922C92.2161 13.0651 91.9401 13.1771 91.6484 13.3281C91.3568 13.4792 91.0885 13.6875 90.8438 13.9531C90.599 14.2188 90.3958 14.5521 90.2344 14.9531C90.0781 15.349 90 15.8307 90 16.3984V17.2188ZM106.656 14.7969L110.078 10.7969H112.852L108.031 16.4141L112.82 22H110.062L106.656 18.0312L103.266 22H100.5L105.281 16.4141L100.484 10.7969H103.234L106.656 14.7969Z" fill="#4B4444"/>
<path d="M46.256 41C46.256 40.408 46.256 39.84 46.256 39.296C46.256 38.752 46.256 38.152 46.256 37.496V36.696C46.256 36.2213 46.256 35.784 46.256 35.384C46.256 34.9787 46.256 34.5893 46.256 34.216C46.256 33.8373 46.256 33.4533 46.256 33.064L47.536 33.016C47.536 33.3947 47.536 33.768 47.536 34.136C47.536 34.504 47.536 34.8853 47.536 35.28C47.536 35.6693 47.536 36.0933 47.536 36.552V39.08H47.648L49.352 36.448C49.72 35.8827 50.088 35.3147 50.456 34.744C50.824 34.1733 51.1893 33.6133 51.552 33.064H52.92C52.92 33.4533 52.92 33.8373 52.92 34.216C52.92 34.5893 52.92 34.9787 52.92 35.384C52.92 35.784 52.92 36.2213 52.92 36.696V37.496C52.92 38.152 52.92 38.752 52.92 39.296C52.92 39.84 52.92 40.408 52.92 41H51.648C51.648 40.4187 51.648 39.8587 51.648 39.32C51.648 38.776 51.648 38.1813 51.648 37.536V34.976H51.536L49.848 37.576C49.4747 38.152 49.104 38.7253 48.736 39.296C48.368 39.8667 48 40.4347 47.632 41H46.256ZM55.4279 41C55.4279 40.408 55.4279 39.84 55.4279 39.296C55.4279 38.752 55.4279 38.152 55.4279 37.496V36.696C55.4279 36.2213 55.4279 35.784 55.4279 35.384C55.4279 34.9787 55.4279 34.5893 55.4279 34.216C55.4279 33.8373 55.4279 33.4533 55.4279 33.064L56.7399 33.008C56.7399 33.4027 56.7399 33.792 56.7399 34.176C56.7399 34.56 56.7399 34.9573 56.7399 35.368C56.7399 35.7733 56.7399 36.216 56.7399 36.696V37.496C56.7399 38.152 56.7399 38.752 56.7399 39.296C56.7399 39.84 56.7399 40.408 56.7399 41H55.4279ZM56.2119 37.528V36.456H61.3079V37.528H56.2119ZM60.7159 41C60.7159 40.408 60.7159 39.84 60.7159 39.296C60.7159 38.752 60.7159 38.152 60.7159 37.496V36.696C60.7159 36.2213 60.7159 35.784 60.7159 35.384C60.7159 34.9787 60.7159 34.5893 60.7159 34.216C60.7159 33.8373 60.7159 33.4533 60.7159 33.064H62.0279C62.0279 33.4533 62.0279 33.8373 62.0279 34.216C62.0279 34.5893 62.0279 34.9787 62.0279 35.384C62.0279 35.784 62.0279 36.2213 62.0279 36.696V37.496C62.0279 38.152 62.0279 38.752 62.0279 39.296C62.0279 39.84 62.0279 40.408 62.0279 41H60.7159ZM63.5933 41C64.0199 40.5307 64.4466 40.064 64.8733 39.6C65.2999 39.1307 65.7213 38.664 66.1373 38.2L67.5613 36.584L67.5453 37.224L66.3133 35.848C65.8919 35.3787 65.4759 34.9147 65.0653 34.456C64.6546 33.9973 64.2359 33.5333 63.8092 33.064L65.3693 33.016C65.6946 33.3947 66.0226 33.776 66.3533 34.16C66.6839 34.5387 67.0119 34.9173 67.3373 35.296L68.3933 36.52H69.1613V37.464H68.4253L67.2093 38.824C66.8893 39.1867 66.5666 39.5493 66.2413 39.912C65.9213 40.2747 65.6013 40.6373 65.2812 41H63.5933ZM68.9853 41C68.9853 40.4347 68.9853 39.8933 68.9853 39.376C68.9853 38.8587 68.9853 38.3013 68.9853 37.704V36.52C68.9853 35.9013 68.9853 35.3147 68.9853 34.76C68.9853 34.2053 68.9853 33.64 68.9853 33.064H70.2733C70.2733 33.64 70.2733 34.208 70.2733 34.768C70.2733 35.3227 70.2733 35.9067 70.2733 36.52V37.704C70.2733 38.3013 70.2733 38.8587 70.2733 39.376C70.2733 39.8933 70.2733 40.4347 70.2733 41H68.9853ZM73.9693 41C73.6279 40.6213 73.2973 40.2533 72.9773 39.896C72.6573 39.5387 72.3293 39.176 71.9933 38.808L70.7853 37.464H70.0973V36.52H70.8653L71.8893 35.296C72.2039 34.928 72.5213 34.5573 72.8413 34.184C73.1613 33.8053 73.4786 33.432 73.7933 33.064H75.3853C74.9746 33.528 74.5639 33.992 74.1533 34.456C73.7479 34.9147 73.3426 35.3733 72.9373 35.832L71.7133 37.224L71.6493 36.584L73.0733 38.192C73.5053 38.6613 73.9373 39.1307 74.3693 39.6C74.8013 40.064 75.2306 40.5307 75.6573 41H73.9693ZM80.5694 41.176C79.62 41.176 78.8387 40.9947 78.2254 40.632C77.612 40.2693 77.156 39.7733 76.8574 39.144C76.5587 38.5147 76.4094 37.7947 76.4094 36.984C76.4094 36.184 76.556 35.4747 76.8494 34.856C77.1427 34.2373 77.564 33.7547 78.1134 33.408C78.6627 33.056 79.3187 32.88 80.0814 32.88C80.7534 32.88 81.3294 33.0107 81.8094 33.272C82.2947 33.5333 82.668 33.9173 82.9294 34.424C83.1907 34.9253 83.3214 35.5467 83.3214 36.288C83.3214 36.4853 83.316 36.664 83.3054 36.824C83.3 36.9787 83.284 37.136 83.2574 37.296L82.0974 36.712C82.108 36.6267 82.1134 36.5467 82.1134 36.472C82.1187 36.392 82.1214 36.3147 82.1214 36.24C82.1214 35.488 81.9347 34.9173 81.5614 34.528C81.188 34.1333 80.7 33.936 80.0974 33.936C79.612 33.936 79.1934 34.0613 78.8414 34.312C78.4947 34.5573 78.2254 34.8987 78.0334 35.336C77.8414 35.7733 77.7454 36.272 77.7454 36.832V37.016C77.7454 37.6347 77.852 38.168 78.0654 38.616C78.2787 39.064 78.6014 39.4107 79.0334 39.656C79.4707 39.896 80.0254 40.016 80.6974 40.016C80.948 40.016 81.212 39.9973 81.4894 39.96C81.772 39.9173 82.0494 39.8533 82.3214 39.768C82.5987 39.6827 82.8627 39.5707 83.1134 39.432L83.1694 40.624C82.9667 40.736 82.732 40.8347 82.4654 40.92C82.1987 41 81.9054 41.0613 81.5854 41.104C81.2654 41.152 80.9267 41.176 80.5694 41.176ZM76.9614 37.296V36.352L82.4494 36.304L83.2574 36.608V37.296H76.9614ZM85.3029 41C85.3029 40.408 85.3029 39.84 85.3029 39.296C85.3029 38.752 85.3029 38.152 85.3029 37.496V36.696C85.3029 36.2213 85.3029 35.784 85.3029 35.384C85.3029 34.9787 85.3029 34.5893 85.3029 34.216C85.3029 33.8373 85.3029 33.4533 85.3029 33.064L86.6149 33.008C86.6149 33.4027 86.6149 33.792 86.6149 34.176C86.6149 34.56 86.6149 34.9573 86.6149 35.368C86.6149 35.7733 86.6149 36.216 86.6149 36.696V37.496C86.6149 38.152 86.6149 38.752 86.6149 39.296C86.6149 39.84 86.6149 40.408 86.6149 41H85.3029ZM86.0869 37.528V36.456H91.1829V37.528H86.0869ZM90.5909 41C90.5909 40.408 90.5909 39.84 90.5909 39.296C90.5909 38.752 90.5909 38.152 90.5909 37.496V36.696C90.5909 36.2213 90.5909 35.784 90.5909 35.384C90.5909 34.9787 90.5909 34.5893 90.5909 34.216C90.5909 33.8373 90.5909 33.4533 90.5909 33.064H91.9029C91.9029 33.4533 91.9029 33.8373 91.9029 34.216C91.9029 34.5893 91.9029 34.9787 91.9029 35.384C91.9029 35.784 91.9029 36.2213 91.9029 36.696V37.496C91.9029 38.152 91.9029 38.752 91.9029 39.296C91.9029 39.84 91.9029 40.408 91.9029 41H90.5909ZM98.1163 41.176C97.1669 41.176 96.3856 40.9947 95.7723 40.632C95.1589 40.2693 94.7029 39.7733 94.4043 39.144C94.1056 38.5147 93.9563 37.7947 93.9563 36.984C93.9563 36.184 94.1029 35.4747 94.3963 34.856C94.6896 34.2373 95.1109 33.7547 95.6603 33.408C96.2096 33.056 96.8656 32.88 97.6283 32.88C98.3003 32.88 98.8763 33.0107 99.3563 33.272C99.8416 33.5333 100.215 33.9173 100.476 34.424C100.738 34.9253 100.868 35.5467 100.868 36.288C100.868 36.4853 100.863 36.664 100.852 36.824C100.847 36.9787 100.831 37.136 100.804 37.296L99.6443 36.712C99.6549 36.6267 99.6603 36.5467 99.6603 36.472C99.6656 36.392 99.6683 36.3147 99.6683 36.24C99.6683 35.488 99.4816 34.9173 99.1083 34.528C98.7349 34.1333 98.2469 33.936 97.6443 33.936C97.1589 33.936 96.7403 34.0613 96.3883 34.312C96.0416 34.5573 95.7723 34.8987 95.5803 35.336C95.3883 35.7733 95.2923 36.272 95.2923 36.832V37.016C95.2923 37.6347 95.3989 38.168 95.6123 38.616C95.8256 39.064 96.1483 39.4107 96.5803 39.656C97.0176 39.896 97.5723 40.016 98.2443 40.016C98.4949 40.016 98.7589 39.9973 99.0363 39.96C99.3189 39.9173 99.5963 39.8533 99.8683 39.768C100.146 39.6827 100.41 39.5707 100.66 39.432L100.716 40.624C100.514 40.736 100.279 40.8347 100.012 40.92C99.7456 41 99.4523 41.0613 99.1323 41.104C98.8123 41.152 98.4736 41.176 98.1163 41.176ZM94.5083 37.296V36.352L99.9963 36.304L100.804 36.608V37.296H94.5083ZM102.85 44.12C102.85 43.5333 102.85 42.9573 102.85 42.392C102.85 41.832 102.85 41.224 102.85 40.568V36.696C102.85 36.1093 102.85 35.5093 102.85 34.896C102.85 34.2827 102.85 33.672 102.85 33.064L104.05 32.984L104.082 34.016H104.218C104.378 33.808 104.58 33.6187 104.826 33.448C105.071 33.272 105.351 33.1333 105.666 33.032C105.986 32.9253 106.335 32.872 106.714 32.872C107.439 32.872 108.055 33.0533 108.562 33.416C109.074 33.7733 109.463 34.264 109.73 34.888C109.996 35.512 110.13 36.2187 110.13 37.008C110.13 37.7493 110.004 38.4373 109.754 39.072C109.508 39.7013 109.132 40.2107 108.626 40.6C108.124 40.984 107.495 41.176 106.738 41.176C106.386 41.176 106.06 41.128 105.762 41.032C105.463 40.9413 105.191 40.8107 104.946 40.64C104.706 40.464 104.487 40.2507 104.29 40H104.17V40.624C104.17 41.248 104.17 41.8293 104.17 42.368C104.17 42.912 104.17 43.48 104.17 44.072L102.85 44.12ZM106.338 39.992C106.908 39.992 107.372 39.8507 107.73 39.568C108.092 39.2853 108.356 38.92 108.522 38.472C108.692 38.0187 108.778 37.5333 108.778 37.016C108.778 36.4773 108.687 35.9867 108.506 35.544C108.33 35.096 108.06 34.7387 107.698 34.472C107.335 34.2053 106.874 34.072 106.314 34.072C106.036 34.072 105.764 34.1147 105.498 34.2C105.231 34.28 104.983 34.4027 104.754 34.568C104.53 34.728 104.335 34.928 104.17 35.168V38.696C104.33 38.968 104.514 39.2 104.722 39.392C104.935 39.584 105.175 39.7333 105.442 39.84C105.708 39.9413 106.007 39.992 106.338 39.992ZM112.209 41C112.209 40.408 112.209 39.84 112.209 39.296C112.209 38.752 112.209 38.152 112.209 37.496V36.696C112.209 36.2213 112.209 35.784 112.209 35.384C112.209 34.9787 112.209 34.5893 112.209 34.216C112.209 33.8373 112.209 33.4533 112.209 33.064L113.521 33.008C113.521 33.4027 113.521 33.792 113.521 34.176C113.521 34.56 113.521 34.9573 113.521 35.368C113.521 35.7733 113.521 36.216 113.521 36.696V37.496C113.521 38.152 113.521 38.752 113.521 39.296C113.521 39.84 113.521 40.408 113.521 41H112.209ZM112.993 37.528V36.456H118.089V37.528H112.993ZM117.497 41C117.497 40.408 117.497 39.84 117.497 39.296C117.497 38.752 117.497 38.152 117.497 37.496V36.696C117.497 36.2213 117.497 35.784 117.497 35.384C117.497 34.9787 117.497 34.5893 117.497 34.216C117.497 33.8373 117.497 33.4533 117.497 33.064H118.809C118.809 33.4533 118.809 33.8373 118.809 34.216C118.809 34.5893 118.809 34.9787 118.809 35.384C118.809 35.784 118.809 36.2213 118.809 36.696V37.496C118.809 38.152 118.809 38.752 118.809 39.296C118.809 39.84 118.809 40.408 118.809 41H117.497ZM121.319 41C121.319 40.408 121.319 39.84 121.319 39.296C121.319 38.752 121.319 38.152 121.319 37.496V36.696C121.319 36.2213 121.319 35.784 121.319 35.384C121.319 34.9787 121.319 34.5893 121.319 34.216C121.319 33.8373 121.319 33.4533 121.319 33.064L122.631 33.008C122.631 33.5787 122.631 34.136 122.631 34.68C122.631 35.2187 122.631 35.7947 122.631 36.408C122.631 37.0533 122.631 37.656 122.631 38.216C122.631 38.7707 122.631 39.344 122.631 39.936H124.199C124.599 39.936 124.961 39.8933 125.287 39.808C125.617 39.7227 125.879 39.5573 126.071 39.312C126.263 39.0613 126.359 38.7013 126.359 38.232C126.359 37.8853 126.303 37.6107 126.191 37.408C126.084 37.2 125.94 37.0453 125.759 36.944C125.577 36.8427 125.38 36.776 125.167 36.744C124.953 36.712 124.745 36.696 124.543 36.696H122.439L122.095 35.632C122.42 35.632 122.825 35.632 123.311 35.632C123.801 35.632 124.26 35.632 124.687 35.632C125.353 35.632 125.911 35.7253 126.359 35.912C126.807 36.0933 127.143 36.376 127.367 36.76C127.591 37.1387 127.703 37.6267 127.703 38.224C127.703 38.7627 127.601 39.2427 127.399 39.664C127.201 40.08 126.871 40.408 126.407 40.648C125.943 40.8827 125.313 41 124.519 41C123.884 41 123.289 41 122.735 41C122.185 41 121.713 41 121.319 41ZM129.071 41C129.071 40.408 129.071 39.84 129.071 39.296C129.071 38.752 129.071 38.152 129.071 37.496V36.696C129.071 36.2213 129.071 35.784 129.071 35.384C129.071 34.9787 129.071 34.5893 129.071 34.216C129.071 33.8373 129.071 33.4533 129.071 33.064L130.399 33.016C130.399 33.4107 130.399 33.8 130.399 34.184C130.399 34.5627 130.399 34.9573 130.399 35.368C130.399 35.7733 130.399 36.216 130.399 36.696V37.496C130.399 38.152 130.399 38.752 130.399 39.296C130.399 39.84 130.399 40.408 130.399 41H129.071ZM136.616 41.176C135.667 41.176 134.886 40.9947 134.272 40.632C133.659 40.2693 133.203 39.7733 132.904 39.144C132.606 38.5147 132.456 37.7947 132.456 36.984C132.456 36.184 132.603 35.4747 132.896 34.856C133.19 34.2373 133.611 33.7547 134.16 33.408C134.71 33.056 135.366 32.88 136.128 32.88C136.8 32.88 137.376 33.0107 137.856 33.272C138.342 33.5333 138.715 33.9173 138.976 34.424C139.238 34.9253 139.368 35.5467 139.368 36.288C139.368 36.4853 139.363 36.664 139.352 36.824C139.347 36.9787 139.331 37.136 139.304 37.296L138.144 36.712C138.155 36.6267 138.16 36.5467 138.16 36.472C138.166 36.392 138.168 36.3147 138.168 36.24C138.168 35.488 137.982 34.9173 137.608 34.528C137.235 34.1333 136.747 33.936 136.144 33.936C135.659 33.936 135.24 34.0613 134.888 34.312C134.542 34.5573 134.272 34.8987 134.08 35.336C133.888 35.7733 133.792 36.272 133.792 36.832V37.016C133.792 37.6347 133.899 38.168 134.112 38.616C134.326 39.064 134.648 39.4107 135.08 39.656C135.518 39.896 136.072 40.016 136.744 40.016C136.995 40.016 137.259 39.9973 137.536 39.96C137.819 39.9173 138.096 39.8533 138.368 39.768C138.646 39.6827 138.91 39.5707 139.16 39.432L139.216 40.624C139.014 40.736 138.779 40.8347 138.512 40.92C138.246 41 137.952 41.0613 137.632 41.104C137.312 41.152 136.974 41.176 136.616 41.176ZM133.008 37.296V36.352L138.496 36.304L139.304 36.608V37.296H133.008ZM144.412 44.12C144.412 43.5333 144.412 42.9573 144.412 42.392C144.412 41.832 144.412 41.224 144.412 40.568V36.696C144.412 36.1093 144.412 35.5093 144.412 34.896C144.412 34.2827 144.412 33.672 144.412 33.064L145.612 32.984L145.644 34.016H145.78C145.94 33.808 146.143 33.6187 146.388 33.448C146.634 33.272 146.914 33.1333 147.228 33.032C147.548 32.9253 147.898 32.872 148.276 32.872C149.002 32.872 149.618 33.0533 150.124 33.416C150.636 33.7733 151.026 34.264 151.292 34.888C151.559 35.512 151.692 36.2187 151.692 37.008C151.692 37.7493 151.567 38.4373 151.316 39.072C151.071 39.7013 150.695 40.2107 150.188 40.6C149.687 40.984 149.058 41.176 148.3 41.176C147.948 41.176 147.623 41.128 147.324 41.032C147.026 40.9413 146.754 40.8107 146.508 40.64C146.268 40.464 146.05 40.2507 145.852 40H145.732V40.624C145.732 41.248 145.732 41.8293 145.732 42.368C145.732 42.912 145.732 43.48 145.732 44.072L144.412 44.12ZM147.9 39.992C148.471 39.992 148.935 39.8507 149.292 39.568C149.655 39.2853 149.919 38.92 150.084 38.472C150.255 38.0187 150.34 37.5333 150.34 37.016C150.34 36.4773 150.25 35.9867 150.068 35.544C149.892 35.096 149.623 34.7387 149.26 34.472C148.898 34.2053 148.436 34.072 147.876 34.072C147.599 34.072 147.327 34.1147 147.06 34.2C146.794 34.28 146.546 34.4027 146.316 34.568C146.092 34.728 145.898 34.928 145.732 35.168V38.696C145.892 38.968 146.076 39.2 146.284 39.392C146.498 39.584 146.738 39.7333 147.004 39.84C147.271 39.9413 147.57 39.992 147.9 39.992ZM157.476 41.176C156.526 41.176 155.745 40.9947 155.132 40.632C154.518 40.2693 154.062 39.7733 153.764 39.144C153.465 38.5147 153.316 37.7947 153.316 36.984C153.316 36.184 153.462 35.4747 153.756 34.856C154.049 34.2373 154.47 33.7547 155.02 33.408C155.569 33.056 156.225 32.88 156.988 32.88C157.66 32.88 158.236 33.0107 158.716 33.272C159.201 33.5333 159.574 33.9173 159.836 34.424C160.097 34.9253 160.228 35.5467 160.228 36.288C160.228 36.4853 160.222 36.664 160.212 36.824C160.206 36.9787 160.19 37.136 160.164 37.296L159.004 36.712C159.014 36.6267 159.02 36.5467 159.02 36.472C159.025 36.392 159.028 36.3147 159.028 36.24C159.028 35.488 158.841 34.9173 158.468 34.528C158.094 34.1333 157.606 33.936 157.004 33.936C156.518 33.936 156.1 34.0613 155.748 34.312C155.401 34.5573 155.132 34.8987 154.94 35.336C154.748 35.7733 154.652 36.272 154.652 36.832V37.016C154.652 37.6347 154.758 38.168 154.972 38.616C155.185 39.064 155.508 39.4107 155.94 39.656C156.377 39.896 156.932 40.016 157.604 40.016C157.854 40.016 158.118 39.9973 158.396 39.96C158.678 39.9173 158.956 39.8533 159.228 39.768C159.505 39.6827 159.769 39.5707 160.02 39.432L160.076 40.624C159.873 40.736 159.638 40.8347 159.372 40.92C159.105 41 158.812 41.0613 158.492 41.104C158.172 41.152 157.833 41.176 157.476 41.176ZM153.868 37.296V36.352L159.356 36.304L160.164 36.608V37.296H153.868ZM162.209 41C162.209 40.408 162.209 39.84 162.209 39.296C162.209 38.752 162.209 38.152 162.209 37.496V36.696C162.209 36.2213 162.209 35.784 162.209 35.384C162.209 34.9787 162.209 34.5893 162.209 34.216C162.209 33.8373 162.209 33.4533 162.209 33.064L163.529 33.008C163.529 33.4027 163.529 33.792 163.529 34.176C163.529 34.56 163.529 34.9573 163.529 35.368C163.529 35.7733 163.529 36.216 163.529 36.696V37.496C163.529 37.928 163.529 38.3253 163.529 38.688C163.529 39.0507 163.529 39.4 163.529 39.736C163.529 40.072 163.529 40.424 163.529 40.792L162.729 39.912H172.369L171.665 40.792C171.665 40.424 171.665 40.072 171.665 39.736C171.665 39.4 171.665 39.0507 171.665 38.688C171.665 38.3253 171.665 37.928 171.665 37.496V36.696C171.665 36.2213 171.665 35.784 171.665 35.384C171.665 34.9787 171.665 34.5893 171.665 34.216C171.665 33.8373 171.665 33.4533 171.665 33.064H172.985C172.985 33.4533 172.985 33.8373 172.985 34.216C172.985 34.5893 172.985 34.9787 172.985 35.384C172.985 35.784 172.985 36.2213 172.985 36.696V37.496C172.985 38.152 172.985 38.752 172.985 39.296C172.985 39.84 172.985 40.408 172.985 41H162.209ZM166.961 40.792C166.961 40.424 166.961 40.072 166.961 39.736C166.961 39.4 166.961 39.0507 166.961 38.688C166.961 38.3253 166.961 37.928 166.961 37.496V36.696C166.961 36.2213 166.961 35.784 166.961 35.384C166.961 34.9787 166.961 34.5893 166.961 34.216C166.961 33.8373 166.961 33.4533 166.961 33.064H168.225C168.225 33.4533 168.225 33.8373 168.225 34.216C168.225 34.5893 168.225 34.9787 168.225 35.384C168.225 35.784 168.225 36.2213 168.225 36.696V37.496C168.225 37.928 168.225 38.3253 168.225 38.688C168.225 39.0507 168.225 39.4 168.225 39.736C168.225 40.072 168.225 40.424 168.225 40.792H166.961ZM179.194 41.176C178.245 41.176 177.464 40.9947 176.85 40.632C176.237 40.2693 175.781 39.7733 175.482 39.144C175.184 38.5147 175.034 37.7947 175.034 36.984C175.034 36.184 175.181 35.4747 175.474 34.856C175.768 34.2373 176.189 33.7547 176.738 33.408C177.288 33.056 177.944 32.88 178.706 32.88C179.378 32.88 179.954 33.0107 180.434 33.272C180.92 33.5333 181.293 33.9173 181.554 34.424C181.816 34.9253 181.946 35.5467 181.946 36.288C181.946 36.4853 181.941 36.664 181.93 36.824C181.925 36.9787 181.909 37.136 181.882 37.296L180.722 36.712C180.733 36.6267 180.738 36.5467 180.738 36.472C180.744 36.392 180.746 36.3147 180.746 36.24C180.746 35.488 180.56 34.9173 180.186 34.528C179.813 34.1333 179.325 33.936 178.722 33.936C178.237 33.936 177.818 34.0613 177.466 34.312C177.12 34.5573 176.85 34.8987 176.658 35.336C176.466 35.7733 176.37 36.272 176.37 36.832V37.016C176.37 37.6347 176.477 38.168 176.69 38.616C176.904 39.064 177.226 39.4107 177.658 39.656C178.096 39.896 178.65 40.016 179.322 40.016C179.573 40.016 179.837 39.9973 180.114 39.96C180.397 39.9173 180.674 39.8533 180.946 39.768C181.224 39.6827 181.488 39.5707 181.738 39.432L181.794 40.624C181.592 40.736 181.357 40.8347 181.09 40.92C180.824 41 180.53 41.0613 180.21 41.104C179.89 41.152 179.552 41.176 179.194 41.176ZM175.586 37.296V36.352L181.074 36.304L181.882 36.608V37.296H175.586ZM183.928 41C183.928 40.408 183.928 39.84 183.928 39.296C183.928 38.752 183.928 38.152 183.928 37.496V36.696C183.928 36.2213 183.928 35.784 183.928 35.384C183.928 34.9787 183.928 34.5893 183.928 34.216C183.928 33.8373 183.928 33.4533 183.928 33.064L185.24 33.008C185.24 33.4027 185.24 33.792 185.24 34.176C185.24 34.56 185.24 34.9573 185.24 35.368C185.24 35.7733 185.24 36.216 185.24 36.696V37.496C185.24 38.152 185.24 38.752 185.24 39.296C185.24 39.84 185.24 40.408 185.24 41H183.928ZM184.712 37.528V36.456H189.808V37.528H184.712ZM189.216 41C189.216 40.408 189.216 39.84 189.216 39.296C189.216 38.752 189.216 38.152 189.216 37.496V36.696C189.216 36.2213 189.216 35.784 189.216 35.384C189.216 34.9787 189.216 34.5893 189.216 34.216C189.216 33.8373 189.216 33.4533 189.216 33.064H190.528C190.528 33.4533 190.528 33.8373 190.528 34.216C190.528 34.5893 190.528 34.9787 190.528 35.384C190.528 35.784 190.528 36.2213 190.528 36.696V37.496C190.528 38.152 190.528 38.752 190.528 39.296C190.528 39.84 190.528 40.408 190.528 41H189.216ZM193.037 41C193.037 40.408 193.037 39.84 193.037 39.296C193.037 38.752 193.037 38.152 193.037 37.496V36.696C193.037 36.2213 193.037 35.784 193.037 35.384C193.037 34.9787 193.037 34.5893 193.037 34.216C193.037 33.8373 193.037 33.4533 193.037 33.064L194.317 33.016C194.317 33.3947 194.317 33.768 194.317 34.136C194.317 34.504 194.317 34.8853 194.317 35.28C194.317 35.6693 194.317 36.0933 194.317 36.552V39.08H194.429L196.133 36.448C196.501 35.8827 196.869 35.3147 197.237 34.744C197.605 34.1733 197.971 33.6133 198.333 33.064H199.701C199.701 33.4533 199.701 33.8373 199.701 34.216C199.701 34.5893 199.701 34.9787 199.701 35.384C199.701 35.784 199.701 36.2213 199.701 36.696V37.496C199.701 38.152 199.701 38.752 199.701 39.296C199.701 39.84 199.701 40.408 199.701 41H198.429C198.429 40.4187 198.429 39.8587 198.429 39.32C198.429 38.776 198.429 38.1813 198.429 37.536V34.976H198.317L196.629 37.576C196.256 38.152 195.885 38.7253 195.517 39.296C195.149 39.8667 194.781 40.4347 194.413 41H193.037ZM201.529 41C201.817 40.616 202.102 40.232 202.385 39.848C202.668 39.4587 202.948 39.08 203.225 38.712L204.393 37.128L204.617 37.744C203.929 37.744 203.38 37.648 202.969 37.456C202.558 37.2587 202.262 36.9867 202.081 36.64C201.9 36.2933 201.809 35.896 201.809 35.448C201.809 34.888 201.926 34.4347 202.161 34.088C202.396 33.736 202.742 33.4773 203.201 33.312C203.66 33.1467 204.228 33.064 204.905 33.064C205.284 33.064 205.673 33.064 206.073 33.064C206.473 33.064 206.852 33.064 207.209 33.064C207.566 33.064 207.865 33.064 208.105 33.064C208.105 33.4533 208.105 33.8373 208.105 34.216C208.105 34.5893 208.105 34.9787 208.105 35.384C208.105 35.784 208.105 36.2213 208.105 36.696V37.496C208.105 38.152 208.105 38.752 208.105 39.296C208.105 39.84 208.105 40.408 208.105 41H206.817C206.817 40.6533 206.817 40.3173 206.817 39.992C206.817 39.6667 206.817 39.3333 206.817 38.992C206.817 38.6453 206.817 38.2827 206.817 37.904V36.696C206.817 36.2267 206.817 35.7867 206.817 35.376C206.817 34.96 206.817 34.544 206.817 34.128H205.017C204.729 34.128 204.441 34.1627 204.153 34.232C203.865 34.3013 203.625 34.4427 203.433 34.656C203.241 34.864 203.145 35.1787 203.145 35.6C203.145 35.9413 203.212 36.208 203.345 36.4C203.478 36.5867 203.646 36.7227 203.849 36.808C204.057 36.888 204.273 36.9387 204.497 36.96C204.726 36.9813 204.934 36.992 205.121 36.992H207.041V37.952H204.889L205.609 37.432L204.601 38.824C204.34 39.1867 204.078 39.552 203.817 39.92C203.556 40.2827 203.294 40.6427 203.033 41H201.529Z" fill="#4B4444"/>
</svg>
