<svg width="45" height="45" viewBox="0 0 45 45" fill="none" xmlns="http://www.w3.org/2000/svg">
<path d="M22.5 33.75V22.5M26.7187 33.75V31.6406C26.7187 29.0918 29.4908 26.6809 31.2891 24.9609C33.8238 22.5378 35.1562 19.2823 35.1562 15.4687C35.1562 8.43749 29.555 2.81249 22.5 2.81249C20.8366 2.80785 19.1888 3.13204 17.6512 3.76644C16.1135 4.40083 14.7165 5.33291 13.5403 6.50907C12.3642 7.68524 11.4321 9.08229 10.7977 10.6199C10.1633 12.1575 9.8391 13.8054 9.84374 15.4687C9.84374 19.1461 11.2333 22.6222 13.7109 24.9609C15.4995 26.6493 18.2812 29.0654 18.2812 31.6406V33.75H26.7187ZM19.6875 42.1875H25.3125H19.6875ZM18.2812 37.9687H26.7187H18.2812Z" stroke="#4B4444" stroke-width="3.75" stroke-linecap="round" stroke-linejoin="round"/>
<path d="M25.8398 21.0938C25.8398 21.0938 23.9493 22.5 22.5 22.5C21.0507 22.5 19.1602 21.0938 19.1602 21.0938" stroke="#4B4444" stroke-width="3.75" stroke-linecap="round" stroke-linejoin="round"/>
<circle r="7.5" transform="matrix(-1 0 0 1 22.5 16.5)" fill="#4B4444"/>
<path d="M26.9094 12.75L21.9415 17.328L20.3302 15.8433L18.75 17.2995L20.3612 18.7843L21.9518 20.25L23.532 18.7938L28.5 14.2157L26.9094 12.75Z" fill="white"/>
</svg>
